<svg xmlns="http://www.w3.org/2000/svg" viewBox="0 0 1140 311">
    <title>Novelist</title>
    <path fill="#FFFFFF" d="M148.3,55.5h7.5v201L12.5,79.5v177H5v-201l143.4,176.7L148.3,55.5L148.3,55.5z M578.7,256.5l-98.2-201h9.4 l89.6,182.4l90.3-182.4h8.3L578.7,256.5z M700.2,55.5h69.9V63h-61.3v112.5H760v7.5h-51.2v66h61.3v7.5h-69.9V55.5z M804.7,55.5V249 h60.2v7.5H796v-201H804.7z M890.9,55.5h8.5v154.3h-8.5V55.5z M1002,69.2c-6.8-4.1-14.5-6.2-23-6.2s-15.7,2.6-21.7,7.9 c-5.9,5.3-8.9,12.5-8.9,21.6v1.3c0,10.9,6.1,20.8,18.2,29.7c5.2,3.8,11,7.5,17.6,11.3c6.5,3.7,13,7.7,19.5,11.9s12.4,8.7,17.7,13.4 s9.6,10.6,13,17.4c3.4,6.9,5.1,14.5,5.1,22.8v2.6c0,16.4-5.6,29.4-16.8,39.1s-25,14.5-41.4,14.5c-21.6,0-38.5-8.9-50.4-26.6v-14 c4.5,9.8,11.2,17.8,19.9,23.9c8.7,6.1,19.6,9.2,32.6,9.2s24.2-4.1,33.8-12.4c9.6-8.3,14.3-19.3,14.3-33.1V202 c0-8.6-2.3-16.5-6.7-23.6c-4.5-7.1-10.2-13-16.9-17.6c-6.7-4.5-14.1-9.4-22.1-14.4c-7.9-5-15.3-9.7-22.1-14 c-6.7-4.3-12.4-9.8-16.9-16.3s-6.7-13.7-6.7-21.5v-1.8c0-12.1,3.9-21.3,11.7-27.7s17.4-9.6,28.9-9.6c16,0,28.6,5.9,37.9,17.6v13.2 C1014.2,79,1008.8,73.3,1002,69.2z M1134.6,55.5V63h-44.4v193.6h-8.5V62.9h-44.9v-7.5L1134.6,55.5L1134.6,55.5z"/>
    <path fill="#FFFFFF" d="M313.4,170.3c-7.3-7.5-8.3-19.5-1.7-28.1c7.2-9.5,21-11.4,30.5-4.1c9.6,7.2,11.5,20.9,4.1,30.4 c-6.6,8.7-18.4,11-27.7,5.9l-81.7,106.8l4.4,3.1c2.9-4.5,34-49.1,128.7-64.8c21-58.6,78.4-136.7,88.6-150.3c-19-28.2-47-49.9-80-61 l0,0c-9.8,12.6-70.5,89.5-122,125.6c10.2,95-25.5,135.9-29.4,139.9l4.1,3.4L313.4,170.3z"/>
    <path fill="#D4145A" d="M257,133.7C308.4,97.6,369.1,20.8,378.9,8.2C363.2,2.9,346.4,0,329,0c-86.3,0-156.1,69.6-156.1,155.5 c0,47.3,21.2,89.7,54.7,118.2C231.3,269.6,267.1,228.7,257,133.7z M458.8,69.1c16.6,24.7,26.3,54.5,26.3,86.4 c0,85.9-69.9,155.5-156.1,155.5c-32.4,0-62.6-9.9-87.6-26.8c2.9-4.5,34-49.1,128.7-64.8C391.2,160.9,448.5,82.8,458.8,69.1z M231.6,277.1l81.7-106.8c-7.3-7.5-8.3-19.5-1.7-28.1c7.2-9.5,21-11.4,30.5-4.1c9.6,7.2,11.5,20.9,4.1,30.4 c-6.6,8.7-18.4,11-27.7,5.9l-81.7,106.8C235.2,279.8,233.4,278.5,231.6,277.1z M911.7,240c0,9.1-7.4,16.5-16.6,16.5 c-9.2,0-16.6-7.3-16.6-16.5s7.4-16.5,16.6-16.5S911.7,230.9,911.7,240z"/>
</svg>
